<?xml version="1.0" encoding="UTF-8"?>
<svg version="1.1" xmlns="http://www.w3.org/2000/svg" width="195" height="204">
<path d="M0 0 C4.44650352 2.0493512 8.82453309 4.20461644 13.18359375 6.43359375 C22.16729059 10.98005431 31.20704423 15.3886748 40.30444336 19.70288086 C46.32352505 22.5607098 52.29498197 25.4990537 58.24609375 28.49609375 C58.24609375 34.10609375 58.24609375 39.71609375 58.24609375 45.49609375 C54.06389646 44.10202799 50.63643537 42.80695365 46.78125 40.84375 C45.74452148 40.31950439 44.70779297 39.79525879 43.63964844 39.25512695 C41.99077637 38.41534302 41.99077637 38.41534302 40.30859375 37.55859375 C31.40604115 33.06765261 22.48506013 28.62432116 13.49609375 24.30859375 C12.5512915 23.85170166 11.60648926 23.39480957 10.63305664 22.92407227 C8.90891437 22.09956432 7.17694108 21.29113091 5.43579102 20.50317383 C3.68516154 19.69802871 1.97777675 18.79910581 0.2890625 17.87109375 C-5.0153995 17.21739882 -9.12540319 20.20133779 -13.69140625 22.68359375 C-15.83746409 23.8054492 -17.9846297 24.92518767 -20.1328125 26.04296875 C-21.2273877 26.61853516 -22.32196289 27.19410156 -23.44970703 27.78710938 C-28.61745688 30.45995177 -33.86856886 32.94929267 -39.12890625 35.43359375 C-40.94963614 36.29599435 -42.76996587 37.1592404 -44.58984375 38.0234375 C-45.44030273 38.42675293 -46.29076172 38.83006836 -47.16699219 39.24560547 C-50.72322691 40.96465362 -54.2361708 42.76600013 -57.74462891 44.58032227 C-59.75390625 45.49609375 -59.75390625 45.49609375 -61.75390625 45.49609375 C-61.75390625 39.88609375 -61.75390625 34.27609375 -61.75390625 28.49609375 C-27.88079829 11.45605777 -27.88079829 11.45605777 -10.8984375 3.54101562 C-9.05360261 2.64212067 -7.27034111 1.61879321 -5.50390625 0.57421875 C-2.75390625 -0.50390625 -2.75390625 -0.50390625 0 0 Z " fill="#E99E21" transform="translate(100.75390625,7.50390625)"/>
<path d="M0 0 C1.03890381 0.41319489 2.07780762 0.82638977 3.14819336 1.25210571 C6.45587626 2.56975634 9.75914943 3.89809343 13.0625 5.2265625 C15.28358139 6.11266321 17.50493297 6.99808698 19.7265625 7.8828125 C23.81020819 9.51210677 27.89313502 11.14311773 31.97265625 12.78271484 C32.78871338 13.11056976 33.60477051 13.43842468 34.44555664 13.7762146 C37.66587872 15.09950139 40.86240154 16.48009173 44.0625 17.8515625 C44.0625 23.4615625 44.0625 29.0715625 44.0625 34.8515625 C37.15584225 32.62911872 30.44149929 30.07211203 23.7109375 27.3671875 C21.53939812 26.50566397 19.36751257 25.64501258 17.1953125 24.78515625 C13.80396144 23.44112531 10.41485236 22.09243657 7.03125 20.72900391 C3.74272629 19.40588695 0.44658469 18.10359649 -2.8515625 16.8046875 C-3.8590152 16.39333557 -4.8664679 15.98198364 -5.90444946 15.5581665 C-14.91358502 12.0472022 -20.71828376 13.48725234 -29.40625 17.01953125 C-30.20421997 17.33682693 -31.00218994 17.65412262 -31.82434082 17.98103333 C-34.3649953 18.99320438 -36.90125237 20.01590616 -39.4375 21.0390625 C-41.10909389 21.70708407 -42.78096689 22.37440764 -44.453125 23.04101562 C-50.78586575 25.56896727 -57.11396848 28.10801387 -63.4296875 30.67822266 C-64.47195496 31.10038811 -64.47195496 31.10038811 -65.53527832 31.53108215 C-67.4067257 32.28938688 -69.27666051 33.0514215 -71.14648438 33.8137207 C-73.9375 34.8515625 -73.9375 34.8515625 -75.9375 34.8515625 C-75.9375 29.2415625 -75.9375 23.6315625 -75.9375 17.8515625 C-67.63648951 14.43151925 -59.32184358 11.04656279 -50.99700928 7.68505859 C-48.90630657 6.83893833 -46.81752216 5.98821523 -44.72900391 5.13671875 C-41.23459274 3.71386762 -37.73324366 2.3093953 -34.22683716 0.91638184 C-32.87432777 0.37598527 -31.52407944 -0.17010724 -30.17623901 -0.7220459 C-28.2743471 -1.49954684 -26.36521745 -2.25581192 -24.453125 -3.0078125 C-23.36290039 -3.44577148 -22.27267578 -3.88373047 -21.14941406 -4.33496094 C-13.61013771 -6.24442193 -6.90522149 -2.79194242 0 0 Z " fill="#E89E21" transform="translate(114.9375,37.1484375)"/>
<path d="M0 0 C1.70650978 0.49373108 1.70650978 0.49373108 3.44749451 0.99743652 C5.83280663 1.689343 8.21691504 2.38541157 10.59985352 3.08544922 C14.26376353 4.16143913 17.931282 5.22433481 21.59960938 6.28515625 C23.92079219 6.96018396 26.24176364 7.63593898 28.5625 8.3125 C29.66340469 8.63230835 30.76430939 8.9521167 31.89857483 9.28161621 C32.90730148 9.57862427 33.91602814 9.87563232 34.95532227 10.18164062 C36.2924099 10.57349548 36.2924099 10.57349548 37.6565094 10.9732666 C39.68359375 11.65625 39.68359375 11.65625 40.68359375 12.65625 C40.75684543 15.51892567 40.7759758 18.356969 40.74609375 21.21875 C40.74158203 22.02505859 40.73707031 22.83136719 40.73242188 23.66210938 C40.72059893 25.66018756 40.70266289 27.65822783 40.68359375 29.65625 C26.11450195 25.49365234 11.54541016 21.33105469 -3.02368164 17.16845703 C-3.94641876 16.90776428 -4.86915588 16.64707153 -5.81985474 16.378479 C-7.90149941 15.77627867 -9.96767316 15.12092115 -12.02905273 14.45263672 C-20.72397532 12.34622473 -27.72612688 14.62869302 -36.09375 17.15625 C-37.30084122 17.51138672 -38.50793243 17.86652344 -39.75160217 18.23242188 C-42.93789983 19.17171441 -46.12119598 20.12005938 -49.30334473 21.07324219 C-53.80930267 22.4200383 -58.3208716 23.74798435 -62.83119202 25.08007812 C-65.22918598 25.78952487 -67.62637417 26.50170174 -70.02268982 27.21679688 C-71.09793411 27.53712891 -72.17317841 27.85746094 -73.28100586 28.1875 C-74.2317247 28.47173828 -75.18244354 28.75597656 -76.16197205 29.04882812 C-78.31640625 29.65625 -78.31640625 29.65625 -79.31640625 29.65625 C-79.31640625 24.04625 -79.31640625 18.43625 -79.31640625 12.65625 C-69.83936522 8.96069431 -60.0898843 6.22551502 -50.32714844 3.39355469 C-48.07134974 2.73574895 -45.81774098 2.07038593 -43.56640625 1.39746094 C-40.29261625 0.41933968 -37.012663 -0.53489059 -33.73046875 -1.484375 C-32.73536285 -1.78635803 -31.74025696 -2.08834106 -30.71499634 -2.3994751 C-19.63644752 -5.54139563 -10.8318487 -3.19955526 0 0 Z " fill="#E99E21" transform="translate(118.31640625,61.34375)"/>
<path d="M0 0 C1.77241058 0.33294067 1.77241058 0.33294067 3.58062744 0.67260742 C7.31097234 1.37573496 11.03824458 2.09384099 14.765625 2.8125 C17.31231103 3.29526873 19.85918466 3.77704901 22.40625 4.2578125 C28.61160095 5.43129895 34.81424454 6.61821653 41.015625 7.8125 C41.015625 13.4225 41.015625 19.0325 41.015625 24.8125 C34.16167982 24.14668314 27.49014139 23.03101802 20.734375 21.7109375 C18.57172434 21.29890265 16.40896035 20.88746229 14.24609375 20.4765625 C10.87459517 19.83282789 7.50402087 19.18523382 4.13525391 18.52734375 C0.85794273 17.88917326 -2.42217244 17.26757569 -5.703125 16.6484375 C-6.70025513 16.44954926 -7.69738525 16.25066101 -8.72473145 16.04574585 C-14.79538446 14.91599771 -19.91423332 14.72563517 -25.984375 15.8125 C-26.85393829 15.95965454 -27.72350159 16.10680908 -28.61941528 16.25842285 C-31.56511828 16.77397743 -34.50310809 17.32275379 -37.44140625 17.87890625 C-38.50679123 18.07725571 -39.57217621 18.27560516 -40.66984558 18.47996521 C-45.1948114 19.32242287 -49.71835819 20.17238161 -54.24194336 21.0222168 C-57.55789338 21.64403156 -60.87461357 22.26160479 -64.19140625 22.87890625 C-65.2143428 23.07263321 -66.23727936 23.26636017 -67.29121399 23.46595764 C-68.71871223 23.73139626 -68.71871223 23.73139626 -70.17504883 24.00219727 C-71.00950027 24.15906509 -71.84395172 24.31593292 -72.70368958 24.47755432 C-74.984375 24.8125 -74.984375 24.8125 -78.984375 24.8125 C-78.984375 19.2025 -78.984375 13.5925 -78.984375 7.8125 C-71.51629012 6.37427017 -64.04561691 4.95064851 -56.57226562 3.54003906 C-54.03440793 3.0589439 -51.49727999 2.57398142 -48.9609375 2.08496094 C-45.29876378 1.37958943 -41.6341234 0.68852663 -37.96875 0 C-36.28987701 -0.32810669 -36.28987701 -0.32810669 -34.5770874 -0.6628418 C-22.55712937 -2.89062765 -11.95605315 -2.33660381 0 0 Z " fill="#E89E21" transform="translate(117.984375,84.1875)"/>
<path d="M0 0 C4.01666759 0.45302052 8.04395603 0.79139417 12.07055664 1.14221191 C15.71705272 1.4723596 19.35884234 1.85286613 23.0012207 2.22570801 C23.0012207 7.83570801 23.0012207 13.44570801 23.0012207 19.22570801 C17.52429627 18.8172507 12.04739785 18.40846968 6.57055664 17.99890137 C4.71249745 17.86004571 2.85442483 17.72136954 0.99633789 17.58288574 C-0.80767722 17.44840991 -2.61167325 17.31367782 -4.41564941 17.17868042 C-6.19074821 17.04590016 -7.96589497 16.9137597 -9.74108887 16.78225708 C-14.26496 16.44422427 -18.77974994 16.06145016 -23.2956543 15.62805176 C-38.87530669 14.36377004 -54.22967729 15.83816153 -69.7487793 17.22570801 C-73.02379186 17.51283768 -76.29896272 17.79803062 -79.57427979 18.08166504 C-81.59561031 18.25729779 -83.6167408 18.43525265 -85.63763428 18.61584473 C-86.54668518 18.69592773 -87.45573608 18.77601074 -88.39233398 18.85852051 C-89.1879071 18.92958008 -89.98348022 19.00063965 -90.80316162 19.07385254 C-92.86406445 19.21639073 -94.93295316 19.22570801 -96.9987793 19.22570801 C-96.9987793 13.61570801 -96.9987793 8.00570801 -96.9987793 2.22570801 C-64.27241998 -1.32165633 -32.82307703 -3.84558264 0 0 Z " fill="#E89E21" transform="translate(135.998779296875,108.7742919921875)"/>
<path d="M0 0 C39.6 0 79.2 0 120 0 C120 4.95 120 9.9 120 15 C80.4 15 40.8 15 0 15 C0 10.05 0 5.1 0 0 Z " fill="#E99F22" transform="translate(39,132)"/>
<path d="M0 0 C1.98 0 3.96 0 6 0 C7.79296875 1.79296875 7.79296875 1.79296875 9.1875 4.1875 C9.65542969 4.96480469 10.12335937 5.74210938 10.60546875 6.54296875 C11.06566406 7.35378906 11.52585937 8.16460937 12 9 C12.99 10.65 13.98 12.3 15 14 C15.33 9.38 15.66 4.76 16 0 C17.32 0 18.64 0 20 0 C20 8.25 20 16.5 20 25 C18.35 25 16.7 25 15 25 C13.12571214 22.6638447 11.67361142 20.56174947 10.1875 18 C9.78080078 17.33226562 9.37410156 16.66453125 8.95507812 15.9765625 C7.95383043 14.32744865 6.97474159 12.6649181 6 11 C5.67 15.62 5.34 20.24 5 25 C3.35 25 1.7 25 0 25 C0 16.75 0 8.5 0 0 Z " fill="#000000" transform="translate(2,174)"/>
<path d="M0 0 C1.98 0 3.96 0 6 0 C8.64 4.62 11.28 9.24 14 14 C14.33 9.38 14.66 4.76 15 0 C16.65 0 18.3 0 20 0 C20 8.25 20 16.5 20 25 C14 25 14 25 12.49267578 23.62304688 C11.97423096 22.68041992 11.97423096 22.68041992 11.4453125 21.71875 C11.05859375 21.04199219 10.671875 20.36523438 10.2734375 19.66796875 C9.89445312 18.95253906 9.51546875 18.23710937 9.125 17.5 C8.7228125 16.78457031 8.320625 16.06914062 7.90625 15.33203125 C6.91721402 13.56589558 5.95587545 11.78430084 5 10 C4.67 14.95 4.34 19.9 4 25 C2.68 25 1.36 25 0 25 C0 16.75 0 8.5 0 0 Z " fill="#000000" transform="translate(107,174)"/>
<path d="M0 0 C1.65 0 3.3 0 5 0 C5.04898438 1.19238281 5.09796875 2.38476562 5.1484375 3.61328125 C5.22347604 5.17971068 5.2990234 6.74611579 5.375 8.3125 C5.4059375 9.09818359 5.436875 9.88386719 5.46875 10.69335938 C5.50742188 11.45068359 5.54609375 12.20800781 5.5859375 12.98828125 C5.6173584 13.68477783 5.6487793 14.38127441 5.68115234 15.09887695 C5.92118253 17.32532739 5.92118253 17.32532739 8 20 C9.65 19.67 11.3 19.34 13 19 C13.33 12.73 13.66 6.46 14 0 C15.98 0 17.96 0 20 0 C20.08172936 2.5215021 20.14083373 5.04029917 20.1875 7.5625 C20.21263672 8.26697266 20.23777344 8.97144531 20.26367188 9.69726562 C20.33534254 14.88144374 19.47862301 18.41830292 17 23 C12.97297355 25.6846843 9.7286041 25.5643542 5 25 C1.71068486 23.27310955 1.1859733 22.5579199 0 19 C-0.0806622 17.51876453 -0.10761193 16.03417796 -0.09765625 14.55078125 C-0.09443359 13.70322266 -0.09121094 12.85566406 -0.08789062 11.98242188 C-0.07951172 11.10134766 -0.07113281 10.22027344 -0.0625 9.3125 C-0.05798828 8.41982422 -0.05347656 7.52714844 -0.04882812 6.60742188 C-0.03704983 4.40488013 -0.02060164 2.20247401 0 0 Z " fill="#000000" transform="translate(174,174)"/>
<path d="M0 0 C1.65 0 3.3 0 5 0 C5.06058594 1.27617187 5.12117188 2.55234375 5.18359375 3.8671875 C5.26799568 5.53647016 5.35264386 7.20574037 5.4375 8.875 C5.47681641 9.71675781 5.51613281 10.55851563 5.55664062 11.42578125 C5.59853516 12.23144531 5.64042969 13.03710938 5.68359375 13.8671875 C5.72025146 14.61081543 5.75690918 15.35444336 5.79467773 16.12060547 C5.89955865 18.08864312 5.89955865 18.08864312 7 20 C8.65 20 10.3 20 12 20 C13.11823815 17.76352369 13.19396061 16.35108471 13.31640625 13.8671875 C13.35830078 13.06152344 13.40019531 12.25585938 13.44335938 11.42578125 C13.48267578 10.58402344 13.52199219 9.74226562 13.5625 8.875 C13.60568359 8.02550781 13.64886719 7.17601562 13.69335938 6.30078125 C13.79954236 4.20071777 13.90028497 2.10038052 14 0 C15.65 0 17.3 0 19 0 C19.14584064 3.22868746 19.23424106 6.45652365 19.3125 9.6875 C19.35439453 10.59951172 19.39628906 11.51152344 19.43945312 12.45117188 C19.52304982 17.04899022 19.51718639 19.28243773 16.76171875 23.10546875 C14.00620864 24.99574089 12.78331021 25.68280476 9.5 25.625 C8.7678125 25.63789063 8.035625 25.65078125 7.28125 25.6640625 C3.61321456 24.59631246 2.23135914 23.09586477 0 20 C-0.5983645 16.53850943 -0.4732482 13.18686463 -0.3125 9.6875 C-0.28994141 8.75615234 -0.26738281 7.82480469 -0.24414062 6.86523438 C-0.18542078 4.5751604 -0.10336858 2.28842125 0 0 Z " fill="#000000" transform="translate(71,174)"/>
<path d="M0 0 C12 0 12 0 15.25 2.125 C17.30475477 5.50066854 17.6606452 7.11870948 17 11 C16.0625 13.3125 16.0625 13.3125 14 15 C10.96657425 15.64003132 8.11366719 15.81949755 5 16 C5 18.97 5 21.94 5 25 C3.35 25 1.7 25 0 25 C0 16.75 0 8.5 0 0 Z M5 4 C5 6.64 5 9.28 5 12 C6.98 11.67 8.96 11.34 11 11 C11.69159401 9.15274948 11.69159401 9.15274948 12 7 C11.34 6.01 10.68 5.02 10 4 C7.41619823 3.74969023 7.41619823 3.74969023 5 4 Z " fill="#000000" transform="translate(39,174)"/>
<path d="M0 0 C6.27 0 12.54 0 19 0 C19 1.65 19 3.3 19 5 C16.69 5 14.38 5 12 5 C12 11.6 12 18.2 12 25 C10.35 25 8.7 25 7 25 C7 18.4 7 11.8 7 5 C4.69 5 2.38 5 0 5 C0 3.35 0 1.7 0 0 Z " fill="#000000" transform="translate(141,174)"/>
</svg>
